:SAMPLES-PER-SECOND 30
:FULLY-SPECIFIED
:DEGREES
569
root  -11.2484 32.9412 28.2328 -105.78 4.71099 81.3157
Spine  0.289956 -4.29603 -8.25841
Spine1  -0.490011 3.19883 -1.9393
Neck  3.97569e-016 0 -2.38542e-015
Head  12.4989 1.30217 9.24917
R_Clavicle  0.39785 -17.6671 1.53832
R_UpperArm  6.73427 -4.79868 30.9835
R_Forearm  -3.34365 34.6048 -34.9945
R_Hand  -0.454325 5.72856 -13.5665
L_Clavicle  -0.542691 19.4909 0.403885
L_UpperArm  -7.87463 10.0945 19.8303
L_Forearm  -2.00727 3.67133 4.25097
L_Hand  -0.263906 5.73675 -2.48298
L_Thigh  -0.90776 -17.7044 6.31294
L_Calf  10.0565 -2.62144 19.7071
L_Foot  4.28858 20.5999 -1.83632
L_Toe0  3.21304 -0.12114 -3.35667
R_Thigh  8.24937 3.31639 -11.1944
R_Calf  -2.35423 -14.6465 -54.0208
R_Foot  2.36887 8.90704 7.52152
R_Toe0  -1.78853 -0.272685 -17.3235
570
root  -9.96596 33.6144 27.532 -94.9936 4.02992 83.4016
Spine  -0.198205 -3.09214 -9.14748
Spine1  -1.2599 5.68561 -2.24616
Neck  3.97569e-016 0 -2.38542e-015
Head  5.13146 -1.40582 13.1112
R_Clavicle  0.358415 -10.9177 1.53275
R_UpperArm  9.29411 2.45262 16.1466
R_Forearm  -5.87597 34.1754 -34.3575
R_Hand  -0.509183 6.2108 -14.3135
L_Clavicle  -0.537317 18.0085 -1.41426
L_UpperArm  3.75487 11.7514 15.1046
L_Forearm  -4.38054 6.94124 8.08993
L_Hand  -0.225862 6.3381 -1.96924
L_Thigh  -2.08188 -15.9832 1.76623
L_Calf  4.567 -2.72015 20.4936
L_Foot  2.67093 19.136 -5.39268
L_Toe0  3.13067 -0.240008 -1.38989
R_Thigh  7.37081 2.67902 -9.61766
R_Calf  2.53125 -13.7737 -49.3933
R_Foot  2.25682 8.53125 6.84117
R_Toe0  -1.78853 -0.272643 -17.3235
571
root  -8.78475 33.8906 26.7735 -84.4303 3.03945 84.788
Spine  -0.92128 -1.05957 -8.48607
Spine1  -2.28334 5.75247 -4.91396
Neck  3.97569e-016 0 -2.38542e-015
Head  -2.37393 -3.13163 16.3044
R_Clavicle  0.443397 -3.85236 2.28101
R_UpperArm  12.0942 10.4178 3.6758
R_Forearm  -4.52399 30.7266 -29.6131
R_Hand  -0.485979 7.00443 -14.4919
L_Clavicle  -0.488918 16.7101 -2.43471
L_UpperArm  17.0281 12.0776 10.628
L_Forearm  -6.67102 9.09368 10.6649
L_Hand  -0.14233 7.30799 -1.0571
L_Thigh  -5.54071 -14.0026 -2.01426
L_Calf  -1.27901 -2.22328 16.6467
L_Foot  3.00808 18.0951 -3.86079
L_Toe0  1.41434 -0.0322818 -3.89486
R_Thigh  6.4084 1.06204 -6.60813
R_Calf  2.47042 -11.9184 -40.8299
R_Foot  1.60137 6.64419 6.31333
R_Toe0  -1.78853 -0.272598 -17.3235
572
root  -7.69382 33.819 26.0378 -74.686 2.18405 85.2453
Spine  -1.37819 1.65264 -7.36984
Spine1  -2.84765 3.18078 -7.70827
Neck  3.97569e-016 0 -2.38542e-015
Head  -9.85262 -4.03994 18.0885
R_Clavicle  0.619626 2.09752 3.0686
R_UpperArm  15.7286 18.2452 -4.58563
R_Forearm  -3.33435 24.7723 -22.5693
R_Hand  -0.200405 8.73795 -13.1041
L_Clavicle  -0.447772 15.9175 -3.34846
L_UpperArm  29.4499 11.1798 6.88768
L_Forearm  -5.15004 9.8074 11.531
L_Hand  -0.0506947 8.00378 -0.215505
L_Thigh  -4.90388 -12.8167 -6.11922
L_Calf  -0.924661 -1.45453 10.8409
L_Foot  3.21842 15.4651 -1.63461
L_Toe0  0.89388 0.0328474 -5.9188
R_Thigh  5.01895 -1.62008 -3.12945
R_Calf  -0.631085 -8.91506 -29.0817
R_Foot  0.958893 4.80795 6.19222
R_Toe0  -1.78853 -0.272555 -17.3235
573
root  -6.61227 33.5476 25.4366 -66.5046 2.33991 85.4747
Spine  -1.38936 4.62389 -7.49547
Spine1  -2.5067 -1.23418 -8.53866
Neck  3.97569e-016 0 -2.38542e-015
Head  -17.1615 -3.97577 18.5091
R_Clavicle  0.826988 6.48184 3.76694
R_UpperArm  20.4818 25.0796 -9.27031
R_Forearm  -3.14959 16.271 -14.0605
R_Hand  0.238243 10.1568 -10.8353
L_Clavicle  -0.391187 15.1246 -4.60752
L_UpperArm  37.5424 9.92957 4.76277
L_Forearm  -0.653415 9.76162 11.4769
L_Hand  0.0308285 8.23091 0.471132
L_Thigh  -1.1729 -11.9196 -10.1499
L_Calf  4.98477 -1.09662 8.088
L_Foot  2.45189 12.6802 -2.05545
L_Toe0  4.9327 -0.351781 -2.31311
R_Thigh  3.04825 -4.63204 0.90304
R_Calf  -1.08884 -4.66163 -14.6457
R_Foot  0.550971 3.55772 5.8264
R_Toe0  -1.78853 -0.272514 -17.3235
